<mxfile host="app.diagrams.net" modified="2021-09-23T03:21:13.299Z" agent="5.0 (Windows NT 10.0; Win64; x64) AppleWebKit/537.36 (KHTML, like Gecko) Chrome/90.0.4430.212 Safari/537.36" etag="sV1OSkQtWwglruW3VTEj" version="15.1.2" type="github">
  <diagram id="rGBcGQrgIOmhusSkpEhY" name="Page-1">
    <mxGraphModel dx="1960" dy="1002" grid="1" gridSize="10" guides="1" tooltips="1" connect="1" arrows="1" fold="1" page="1" pageScale="1" pageWidth="827" pageHeight="1169" math="0" shadow="0">
      <root>
        <mxCell id="0" />
        <mxCell id="1" parent="0" />
        <mxCell id="k5ek-Dyfz73bsxwR2uP5-2" value="" style="rounded=0;whiteSpace=wrap;html=1;" vertex="1" parent="1">
          <mxGeometry x="280" y="290" width="390" height="190" as="geometry" />
        </mxCell>
        <mxCell id="k5ek-Dyfz73bsxwR2uP5-23" style="edgeStyle=orthogonalEdgeStyle;rounded=0;orthogonalLoop=1;jettySize=auto;html=1;exitX=1;exitY=0.5;exitDx=0;exitDy=0;exitPerimeter=0;entryX=0.003;entryY=0.553;entryDx=0;entryDy=0;entryPerimeter=0;" edge="1" parent="1" source="k5ek-Dyfz73bsxwR2uP5-1" target="k5ek-Dyfz73bsxwR2uP5-2">
          <mxGeometry relative="1" as="geometry" />
        </mxCell>
        <mxCell id="k5ek-Dyfz73bsxwR2uP5-26" style="edgeStyle=orthogonalEdgeStyle;rounded=0;orthogonalLoop=1;jettySize=auto;html=1;exitX=0.5;exitY=1;exitDx=0;exitDy=0;exitPerimeter=0;" edge="1" parent="1" source="k5ek-Dyfz73bsxwR2uP5-1">
          <mxGeometry relative="1" as="geometry">
            <mxPoint x="138" y="520" as="targetPoint" />
          </mxGeometry>
        </mxCell>
        <mxCell id="k5ek-Dyfz73bsxwR2uP5-1" value="" style="verticalLabelPosition=bottom;html=1;verticalAlign=top;align=center;strokeColor=none;fillColor=#00BEF2;shape=mxgraph.azure.mobile;pointerEvents=1;" vertex="1" parent="1">
          <mxGeometry x="120" y="370" width="35" height="50" as="geometry" />
        </mxCell>
        <mxCell id="k5ek-Dyfz73bsxwR2uP5-22" value="" style="group" vertex="1" connectable="0" parent="1">
          <mxGeometry x="300" y="300" width="360" height="174" as="geometry" />
        </mxCell>
        <mxCell id="k5ek-Dyfz73bsxwR2uP5-13" value="" style="rounded=1;whiteSpace=wrap;html=1;dashed=1;dashPattern=1 1;" vertex="1" parent="k5ek-Dyfz73bsxwR2uP5-22">
          <mxGeometry x="210" y="84" width="150" height="90" as="geometry" />
        </mxCell>
        <mxCell id="k5ek-Dyfz73bsxwR2uP5-3" value="历史ping数据" style="rounded=1;whiteSpace=wrap;html=1;" vertex="1" parent="k5ek-Dyfz73bsxwR2uP5-22">
          <mxGeometry x="20" width="110" height="40" as="geometry" />
        </mxCell>
        <mxCell id="k5ek-Dyfz73bsxwR2uP5-4" value="线上统计数据" style="rounded=1;whiteSpace=wrap;html=1;" vertex="1" parent="k5ek-Dyfz73bsxwR2uP5-22">
          <mxGeometry x="230" width="110" height="40" as="geometry" />
        </mxCell>
        <mxCell id="k5ek-Dyfz73bsxwR2uP5-11" value="" style="group" vertex="1" connectable="0" parent="k5ek-Dyfz73bsxwR2uP5-22">
          <mxGeometry y="84" width="185" height="90" as="geometry" />
        </mxCell>
        <mxCell id="k5ek-Dyfz73bsxwR2uP5-5" value="" style="rounded=1;whiteSpace=wrap;html=1;dashed=1;dashPattern=1 1;" vertex="1" parent="k5ek-Dyfz73bsxwR2uP5-11">
          <mxGeometry width="150" height="90" as="geometry" />
        </mxCell>
        <mxCell id="k5ek-Dyfz73bsxwR2uP5-7" value="idc1" style="rounded=1;whiteSpace=wrap;html=1;" vertex="1" parent="k5ek-Dyfz73bsxwR2uP5-11">
          <mxGeometry x="10" y="10" width="60" height="30" as="geometry" />
        </mxCell>
        <mxCell id="k5ek-Dyfz73bsxwR2uP5-8" value="idc2" style="rounded=1;whiteSpace=wrap;html=1;" vertex="1" parent="k5ek-Dyfz73bsxwR2uP5-11">
          <mxGeometry x="80" y="10" width="60" height="30" as="geometry" />
        </mxCell>
        <mxCell id="k5ek-Dyfz73bsxwR2uP5-9" value="idc..." style="rounded=1;whiteSpace=wrap;html=1;" vertex="1" parent="k5ek-Dyfz73bsxwR2uP5-11">
          <mxGeometry x="10" y="50" width="60" height="30" as="geometry" />
        </mxCell>
        <mxCell id="k5ek-Dyfz73bsxwR2uP5-10" value="idcN" style="rounded=1;whiteSpace=wrap;html=1;" vertex="1" parent="k5ek-Dyfz73bsxwR2uP5-11">
          <mxGeometry x="80" y="50" width="60" height="30" as="geometry" />
        </mxCell>
        <mxCell id="k5ek-Dyfz73bsxwR2uP5-12" value="" style="group" vertex="1" connectable="0" parent="k5ek-Dyfz73bsxwR2uP5-11">
          <mxGeometry x="210" width="150" height="90" as="geometry" />
        </mxCell>
        <mxCell id="k5ek-Dyfz73bsxwR2uP5-14" value="idc1" style="rounded=1;whiteSpace=wrap;html=1;" vertex="1" parent="k5ek-Dyfz73bsxwR2uP5-12">
          <mxGeometry x="10" y="10" width="60" height="30" as="geometry" />
        </mxCell>
        <mxCell id="k5ek-Dyfz73bsxwR2uP5-15" value="idc2" style="rounded=1;whiteSpace=wrap;html=1;" vertex="1" parent="k5ek-Dyfz73bsxwR2uP5-12">
          <mxGeometry x="80" y="10" width="60" height="30" as="geometry" />
        </mxCell>
        <mxCell id="k5ek-Dyfz73bsxwR2uP5-16" value="idc..." style="rounded=1;whiteSpace=wrap;html=1;" vertex="1" parent="k5ek-Dyfz73bsxwR2uP5-12">
          <mxGeometry x="10" y="50" width="60" height="30" as="geometry" />
        </mxCell>
        <mxCell id="k5ek-Dyfz73bsxwR2uP5-17" value="idcN" style="rounded=1;whiteSpace=wrap;html=1;" vertex="1" parent="k5ek-Dyfz73bsxwR2uP5-12">
          <mxGeometry x="80" y="50" width="60" height="30" as="geometry" />
        </mxCell>
        <mxCell id="k5ek-Dyfz73bsxwR2uP5-18" value="" style="shape=flexArrow;endArrow=classic;html=1;width=11;endSize=4;" edge="1" parent="k5ek-Dyfz73bsxwR2uP5-22">
          <mxGeometry width="50" height="50" relative="1" as="geometry">
            <mxPoint x="74.5" y="44" as="sourcePoint" />
            <mxPoint x="74.5" y="84" as="targetPoint" />
          </mxGeometry>
        </mxCell>
        <mxCell id="k5ek-Dyfz73bsxwR2uP5-20" value="" style="shape=flexArrow;endArrow=classic;html=1;width=11;endSize=4;" edge="1" parent="k5ek-Dyfz73bsxwR2uP5-22">
          <mxGeometry width="50" height="50" relative="1" as="geometry">
            <mxPoint x="284.5" y="44" as="sourcePoint" />
            <mxPoint x="284.5" y="84" as="targetPoint" />
          </mxGeometry>
        </mxCell>
        <mxCell id="k5ek-Dyfz73bsxwR2uP5-24" value="上报ping" style="text;html=1;align=center;verticalAlign=middle;resizable=0;points=[];autosize=1;strokeColor=none;fillColor=none;" vertex="1" parent="1">
          <mxGeometry x="180" y="370" width="60" height="20" as="geometry" />
        </mxCell>
        <mxCell id="k5ek-Dyfz73bsxwR2uP5-28" style="edgeStyle=orthogonalEdgeStyle;rounded=0;orthogonalLoop=1;jettySize=auto;html=1;exitX=1;exitY=0.5;exitDx=0;exitDy=0;entryX=0.5;entryY=1;entryDx=0;entryDy=0;" edge="1" parent="1" source="k5ek-Dyfz73bsxwR2uP5-25" target="k5ek-Dyfz73bsxwR2uP5-2">
          <mxGeometry relative="1" as="geometry" />
        </mxCell>
        <mxCell id="k5ek-Dyfz73bsxwR2uP5-25" value="IDCRecomSvr" style="rounded=1;whiteSpace=wrap;html=1;dashed=1;dashPattern=1 1;" vertex="1" parent="1">
          <mxGeometry x="77.5" y="525" width="120" height="60" as="geometry" />
        </mxCell>
        <mxCell id="k5ek-Dyfz73bsxwR2uP5-27" value="上报ping" style="text;html=1;align=center;verticalAlign=middle;resizable=0;points=[];autosize=1;strokeColor=none;fillColor=none;horizontal=1;" vertex="1" parent="1">
          <mxGeometry x="80" y="454" width="60" height="20" as="geometry" />
        </mxCell>
        <mxCell id="k5ek-Dyfz73bsxwR2uP5-29" value="拉取历史及统计数据" style="text;html=1;align=center;verticalAlign=middle;resizable=0;points=[];autosize=1;strokeColor=none;fillColor=none;" vertex="1" parent="1">
          <mxGeometry x="330" y="530" width="120" height="20" as="geometry" />
        </mxCell>
        <mxCell id="k5ek-Dyfz73bsxwR2uP5-31" style="orthogonalLoop=1;jettySize=auto;html=1;exitX=0;exitY=0.5;exitDx=0;exitDy=0;entryX=0.5;entryY=1;entryDx=0;entryDy=0;rounded=0;" edge="1" parent="1" source="k5ek-Dyfz73bsxwR2uP5-30" target="k5ek-Dyfz73bsxwR2uP5-25">
          <mxGeometry relative="1" as="geometry" />
        </mxCell>
        <mxCell id="k5ek-Dyfz73bsxwR2uP5-33" value="获取最优idc及可用idc,及其权重" style="edgeLabel;html=1;align=center;verticalAlign=middle;resizable=0;points=[];" vertex="1" connectable="0" parent="k5ek-Dyfz73bsxwR2uP5-31">
          <mxGeometry x="0.2948" y="-3" relative="1" as="geometry">
            <mxPoint x="34" y="11" as="offset" />
          </mxGeometry>
        </mxCell>
        <mxCell id="k5ek-Dyfz73bsxwR2uP5-39" style="edgeStyle=none;rounded=0;orthogonalLoop=1;jettySize=auto;html=1;exitX=1;exitY=0.5;exitDx=0;exitDy=0;entryX=0;entryY=0.5;entryDx=0;entryDy=0;strokeColor=#000000;" edge="1" parent="1" source="k5ek-Dyfz73bsxwR2uP5-30" target="k5ek-Dyfz73bsxwR2uP5-38">
          <mxGeometry relative="1" as="geometry" />
        </mxCell>
        <mxCell id="k5ek-Dyfz73bsxwR2uP5-30" value="MatchMgr" style="rounded=1;whiteSpace=wrap;html=1;dashed=1;dashPattern=1 1;" vertex="1" parent="1">
          <mxGeometry x="330" y="630" width="120" height="60" as="geometry" />
        </mxCell>
        <mxCell id="k5ek-Dyfz73bsxwR2uP5-36" style="edgeStyle=none;rounded=0;orthogonalLoop=1;jettySize=auto;html=1;entryX=0;entryY=0.5;entryDx=0;entryDy=0;strokeColor=#000000;" edge="1" parent="1" source="k5ek-Dyfz73bsxwR2uP5-35" target="k5ek-Dyfz73bsxwR2uP5-30">
          <mxGeometry relative="1" as="geometry" />
        </mxCell>
        <mxCell id="k5ek-Dyfz73bsxwR2uP5-37" value="请求匹配" style="edgeLabel;html=1;align=center;verticalAlign=middle;resizable=0;points=[];" vertex="1" connectable="0" parent="k5ek-Dyfz73bsxwR2uP5-36">
          <mxGeometry x="-0.3434" relative="1" as="geometry">
            <mxPoint x="22" as="offset" />
          </mxGeometry>
        </mxCell>
        <mxCell id="k5ek-Dyfz73bsxwR2uP5-35" value="" style="verticalLabelPosition=bottom;html=1;verticalAlign=top;align=center;strokeColor=none;fillColor=#00BEF2;shape=mxgraph.azure.mobile;pointerEvents=1;" vertex="1" parent="1">
          <mxGeometry x="122.5" y="635" width="30" height="50" as="geometry" />
        </mxCell>
        <mxCell id="k5ek-Dyfz73bsxwR2uP5-38" value="匹配" style="rounded=1;whiteSpace=wrap;html=1;dashed=1;dashPattern=1 1;" vertex="1" parent="1">
          <mxGeometry x="550" y="630" width="120" height="60" as="geometry" />
        </mxCell>
      </root>
    </mxGraphModel>
  </diagram>
</mxfile>
